<svg id="Layer_1" data-name="Layer 1" xmlns="http://www.w3.org/2000/svg" viewBox="0 0 2316.64 352.37"><defs><style>.cls-1{fill:#fff;}</style></defs><title>full logo name</title><path class="cls-1" d="M.36,0H113.52v241H286.16v104.5H.36Z" transform="translate(-0.36 0.04)"/><path class="cls-1" d="M592.72,190.47V0H710.18V189c0,38.94,27.66,59.19,58.75,59.19s58.81-19.92,58.81-56.74V0H945.19V188c0,110.61-74.09,164.34-177.24,164.34S592.72,298.61,592.72,190.47Z" transform="translate(-0.36 0.04)"/><path class="cls-1" d="M1274.26,0h120.42l83.62,121.41L1561.92,0h120.41V345.44H1569.5l-.16-171L1480,298h-3.47l-89.28-123.58v171h-113Z" transform="translate(-0.36 0.04)"/><path class="cls-1" d="M2019.89,0h294.64V94.72H2133v35h159.6v83.41H2133v37.52h184v94.76H2019.89Z" transform="translate(-0.36 0.04)"/></svg>